<svg xmlns="http://www.w3.org/2000/svg" viewBox="0 0 320 240" width="320" height="240">

<style>
  .axis { stroke: #000; stroke-width: 1; fill: none; }
  .vec  { stroke: #000; stroke-width: 1.5; fill: none; }
  .vec-thin { stroke: #555; stroke-width: 1; fill: none; }
  .dashed { stroke: #555; stroke-width: 1; stroke-dasharray: 4 3; fill: none; }
  .ftxt { font-family: 'Times New Roman', serif; font-style: italic; font-size: 14px; fill: #000; }
  .label { font-family: 'Hiragino Sans', sans-serif; font-size: 12px; fill: #000; }
  .pt { fill: #000; }
  .filled { fill: #ddd; stroke: #000; stroke-width: 1; }
  .filled-light { fill: #eee; stroke: #000; stroke-width: 1; }
  .right-angle { stroke: #000; stroke-width: 1; fill: none; }
</style>


<defs>
  <marker id="arrow" viewBox="0 0 10 10" refX="9" refY="5"
          markerWidth="7" markerHeight="7" orient="auto">
    <path d="M 0 0 L 10 5 L 0 10 z" fill="#000"/>
  </marker>
  <marker id="arrowgray" viewBox="0 0 10 10" refX="9" refY="5"
          markerWidth="6" markerHeight="6" orient="auto">
    <path d="M 0 0 L 10 5 L 0 10 z" fill="#555"/>
  </marker>
</defs>

<line x1="60.0" y1="200.0" x2="270.0" y2="200.0" class="vec-thin"/>
<line x1="60.0" y1="200.0" x2="180.0" y2="50.0" class="vec-thin"/>
<line x1="270.0" y1="200.0" x2="180.0" y2="50.0" class="vec-thin"/>
<line x1="270.0" y1="200.0" x2="120.0" y2="125.0" class="vec-thin"/>
<line x1="180.0" y1="50.0" x2="130.0" y2="200.0" class="vec-thin"/>
<circle cx="60.0" cy="200.0" r="3" class="pt"/>
<circle cx="270.0" cy="200.0" r="3" class="pt"/>
<circle cx="180.0" cy="50.0" r="3" class="pt"/>
<circle cx="130.0" cy="200.0" r="2.5" class="pt"/>
<circle cx="120.0" cy="125.0" r="2.5" class="pt"/>
<circle cx="150.0" cy="140.0" r="3.5" class="pt"/>
<text x="45.0" y="205.0" class="label">O</text>
<text x="275.0" y="205.0" class="label">A</text>
<text x="175.0" y="42.0" class="label">B</text>
<text x="125.0" y="218.0" class="label">M</text>
<text x="102.0" y="123.0" class="label">N</text>
<text x="155.0" y="135.0" class="label">P</text>
</svg>